<svg xmlns="http://www.w3.org/2000/svg" xmlns:xlink="http://www.w3.org/1999/xlink" width="1835" height="899" viewBox="0 0 1835 899">
  <defs>
    <linearGradient id="linear-gradient" x1="0.333" y1="0.031" x2="0.646" y2="0.978" gradientUnits="objectBoundingBox">
      <stop offset="0" stop-color="#242329"/>
      <stop offset="1" stop-color="#111015"/>
    </linearGradient>
    <clipPath id="clip-path">
      <rect id="Rectangle_7" data-name="Rectangle 7" width="1920" height="937" transform="translate(-8 -137)" fill="url(#linear-gradient)"/>
    </clipPath>
    <clipPath id="clip-Artboard_1">
      <rect width="1835" height="899"/>
    </clipPath>
  </defs>
  <g id="Artboard_1" data-name="Artboard – 1" clip-path="url(#clip-Artboard_1)">
    <rect width="1835" height="899" fill="#fff"/>
    <g id="Group_157" data-name="Group 157" transform="translate(-77 99)">
      <g id="Mask_Group_1" data-name="Mask Group 1" clip-path="url(#clip-path)">
        <rect id="Rectangle_1" data-name="Rectangle 1" width="1920" height="937" transform="translate(70 -105)" fill="url(#linear-gradient)"/>
        <g id="Group_48" data-name="Group 48" transform="translate(-339 -66)">
          <path id="Path_11" data-name="Path 11" d="M2314.25,604.613s170.541-147.836,407.458-180.057,526.9,115.616,754.345,56.86" transform="translate(-1975)" fill="none" stroke="#3b3b3b" stroke-width="1"/>
          <path id="Path_12" data-name="Path 12" d="M2314.612,604.75s84.547-76.779,269.164-77.642,355.355,149.63,662.945,153.32" transform="translate(-1975)" fill="none" stroke="#3b3b3b" stroke-width="1"/>
          <path id="Path_13" data-name="Path 13" d="M2314.64,604.108s108.368-99.568,346.779-121,517.472,176.711,788.506,72.467" transform="translate(-1975)" fill="none" stroke="#3b3b3b" stroke-width="1"/>
          <path id="Path_14" data-name="Path 14" d="M2314.942,604.41S2460.155,502.266,2644,587.556s440.892,288.158,741.079,204.7" transform="translate(-1975)" fill="none" stroke="#3b3b3b" stroke-width="1"/>
        </g>
        <g id="Group_49" data-name="Group 49" transform="translate(1931.053 822.995) rotate(180)">
          <path id="Path_11-2" data-name="Path 11" d="M0,184.708S170.541,36.872,407.458,4.651s526.9,115.616,754.345,56.86" transform="translate(0 0)" fill="none" stroke="#3b3b3b" stroke-width="1"/>
          <path id="Path_12-2" data-name="Path 12" d="M0,77.646S84.547.866,269.164,0s355.355,149.63,662.945,153.32" transform="translate(0.363 107.199)" fill="none" stroke="#3b3b3b" stroke-width="1"/>
          <path id="Path_13-2" data-name="Path 13" d="M0,122.633s108.368-99.568,346.779-121S864.251,178.346,1135.285,74.1" transform="translate(0.391 61.57)" fill="none" stroke="#3b3b3b" stroke-width="1"/>
          <path id="Path_14-2" data-name="Path 14" d="M0,50.836S145.213-51.309,329.061,33.982s440.892,288.158,741.079,204.7" transform="translate(0.693 133.67)" fill="none" stroke="#3b3b3b" stroke-width="1"/>
        </g>
        <g id="Group_1" data-name="Group 1" transform="translate(-1448 -44)">
          <path id="Path_1" data-name="Path 1" d="M2086.032,234.153l64.164,75.59-99.1,17.14Z" transform="translate(-307.462 29.731)" fill="#28272d"/>
          <path id="Path_2" data-name="Path 2" d="M2076.734,234.153l64.164,75.59,5.493-69.437Z" transform="translate(-298.165 29.731)" fill="#2c2b31"/>
          <path id="Path_3" data-name="Path 3" d="M2109.544,348.3l40.652-58.67-99.1,17.14Z" transform="translate(-307.462 49.847)" fill="#2b2a30"/>
          <path id="Path_4" data-name="Path 4" d="M2094.57,234.153l-67.02,30.324,32.082,62.406Z" transform="translate(-316 29.731)" fill="#26252b"/>
          <path id="Path_5" data-name="Path 5" d="M2094.57,239.883l-67.02,30.324,62.186-51.858Z" transform="translate(-316 24)" fill="#232228"/>
          <path id="Path_6" data-name="Path 6" d="M2042.492,333.1l-14.942-76.689,32.082,62.406Z" transform="translate(-316 37.8)" fill="#232228"/>
          <path id="Path_7" data-name="Path 7" d="M2114.105,343.736l-75.59-27.028,17.14-14.5Z" transform="translate(-312.023 54.408)" fill="#27262c"/>
          <path id="Path_8" data-name="Path 8" d="M2093.989,348.3l40.652-58.67,20.216,8.13Z" transform="translate(-291.907 49.847)" fill="#302f37"/>
          <path id="Path_9" data-name="Path 9" d="M2144.039,316.236l-20.216-8.13,5.493-69.437Z" transform="translate(-281.089 31.368)" fill="#2f2e34"/>
          <path id="Path_10" data-name="Path 10" d="M2078.021,239.883l-4.834-21.534,74.491,27.687Z" transform="translate(-299.451 24)" fill="#252328"/>
        </g>
        <g id="Group_5" data-name="Group 5" transform="translate(3184.228 702.224) rotate(180)">
          <path id="Path_1-2" data-name="Path 1" d="M2062.2,234.153l20.4,24.03-31.5,5.449Z" transform="translate(-329.346 15.042)" fill="#28272d"/>
          <path id="Path_2-2" data-name="Path 2" d="M2076.734,234.153l20.4,24.03,1.746-22.074Z" transform="translate(-343.88 15.042)" fill="#2c2b31"/>
          <path id="Path_3-2" data-name="Path 3" d="M2069.675,308.278l12.923-18.651-31.5,5.449Z" transform="translate(-329.346 -16.403)" fill="#2b2a30"/>
          <path id="Path_4-2" data-name="Path 4" d="M2048.855,234.153l-21.305,9.64,10.2,19.838Z" transform="translate(-316 15.042)" fill="#26252b"/>
          <path id="Path_5-2" data-name="Path 5" d="M2048.855,225.195l-21.305,9.64,19.768-16.485Z" transform="translate(-316 24)" fill="#232228"/>
          <path id="Path_6-2" data-name="Path 6" d="M2032.3,280.786l-4.75-24.379,10.2,19.838Z" transform="translate(-316 2.427)" fill="#232228"/>
          <path id="Path_7-2" data-name="Path 7" d="M2062.545,315.408l-24.03-8.592,5.449-4.61Z" transform="translate(-322.216 -23.533)" fill="#27262c"/>
          <path id="Path_8-2" data-name="Path 8" d="M2093.989,308.278l12.923-18.651,6.427,2.585Z" transform="translate(-353.66 -16.403)" fill="#302f37"/>
          <path id="Path_9-2" data-name="Path 9" d="M2130.249,263.326l-6.427-2.585,1.746-22.074Z" transform="translate(-370.571 12.483)" fill="#2f2e34"/>
          <path id="Path_10-2" data-name="Path 10" d="M2074.723,225.195l-1.537-6.846,23.68,8.8Z" transform="translate(-341.869 24)" fill="#252328"/>
        </g>
        <g id="Group_6" data-name="Group 6" transform="translate(-367.36 2288.534) rotate(-65)">
          <path id="Path_1-3" data-name="Path 1" d="M2058.586,234.153l13.759,16.21-21.251,3.675Z" transform="translate(-332.665 12.814)" fill="#28272d"/>
          <path id="Path_2-3" data-name="Path 2" d="M2076.734,234.153l13.759,16.21,1.178-14.89Z" transform="translate(-350.813 12.814)" fill="#2c2b31"/>
          <path id="Path_3-3" data-name="Path 3" d="M2063.628,302.208l8.717-12.581-21.251,3.675Z" transform="translate(-332.665 -26.45)" fill="#2b2a30"/>
          <path id="Path_4-3" data-name="Path 4" d="M2041.921,234.153l-14.372,6.5,6.88,13.382Z" transform="translate(-316 12.814)" fill="#26252b"/>
          <path id="Path_5-3" data-name="Path 5" d="M2041.921,222.967l-14.372,6.5,13.335-11.121Z" transform="translate(-316 24)" fill="#232228"/>
          <path id="Path_6-3" data-name="Path 6" d="M2030.754,272.852l-3.2-16.445,6.88,13.382Z" transform="translate(-316 -2.937)" fill="#232228"/>
          <path id="Path_7-3" data-name="Path 7" d="M2054.725,311.111l-16.21-5.8,3.676-3.11Z" transform="translate(-323.761 -35.353)" fill="#27262c"/>
          <path id="Path_8-3" data-name="Path 8" d="M2093.989,302.208l8.718-12.581,4.335,1.743Z" transform="translate(-363.026 -26.45)" fill="#302f37"/>
          <path id="Path_9-3" data-name="Path 9" d="M2128.158,255.3l-4.335-1.743,1.178-14.89Z" transform="translate(-384.142 9.618)" fill="#2f2e34"/>
          <path id="Path_10-3" data-name="Path 10" d="M2074.223,222.967l-1.037-4.618,15.974,5.937Z" transform="translate(-348.302 24)" fill="#252328"/>
        </g>
        <g id="Group_2" data-name="Group 2" transform="matrix(0.966, -0.259, 0.259, 0.966, -1554.858, 1053.823)" opacity="0.81">
          <path id="Path_1-4" data-name="Path 1" d="M2078.989,234.153l51.229,60.352-79.124,13.684Z" transform="translate(-313.93 25.389)" fill="#28272d"/>
          <path id="Path_2-4" data-name="Path 2" d="M2076.734,234.153l51.229,60.352,4.386-55.439Z" transform="translate(-311.676 25.389)" fill="#2c2b31"/>
          <path id="Path_3-4" data-name="Path 3" d="M2097.761,336.47l32.457-46.843-79.124,13.684Z" transform="translate(-313.93 30.267)" fill="#2b2a30"/>
          <path id="Path_4-4" data-name="Path 4" d="M2081.059,234.153l-53.51,24.211,25.614,49.825Z" transform="translate(-316 25.389)" fill="#26252b"/>
          <path id="Path_5-4" data-name="Path 5" d="M2081.059,235.542l-53.51,24.211,49.65-41.4Z" transform="translate(-316 24)" fill="#232228"/>
          <path id="Path_6-4" data-name="Path 6" d="M2039.479,317.636l-11.93-61.229,25.614,49.825Z" transform="translate(-316 27.346)" fill="#232228"/>
          <path id="Path_7-4" data-name="Path 7" d="M2098.867,335.364l-60.352-21.579,13.685-11.579Z" transform="translate(-315.036 31.373)" fill="#27262c"/>
          <path id="Path_8-4" data-name="Path 8" d="M2093.989,336.47l32.457-46.843,16.141,6.491Z" transform="translate(-310.158 30.267)" fill="#302f37"/>
          <path id="Path_9-4" data-name="Path 9" d="M2139.963,300.6l-16.141-6.491,4.386-55.439Z" transform="translate(-307.535 25.787)" fill="#2f2e34"/>
          <path id="Path_10-4" data-name="Path 10" d="M2077.046,235.542l-3.86-17.193,59.474,22.106Z" transform="translate(-311.987 24)" fill="#252328"/>
        </g>
        <g id="Group_3" data-name="Group 3" transform="translate(55 -112)" opacity="0.65">
          <path id="Path_1-5" data-name="Path 1" d="M2099.426,234.153l88.761,104.568-137.093,23.71Z" transform="translate(-295.164 37.986)" fill="#28272d"/>
          <path id="Path_2-5" data-name="Path 2" d="M2076.734,234.153l88.76,104.568,7.6-96.056Z" transform="translate(-272.473 37.986)" fill="#2c2b31"/>
          <path id="Path_3-5" data-name="Path 3" d="M2131.951,370.788l56.236-81.161-137.093,23.71Z" transform="translate(-295.164 87.079)" fill="#2b2a30"/>
          <path id="Path_4-5" data-name="Path 4" d="M2120.262,234.153,2027.549,276.1l44.381,86.329Z" transform="translate(-316 37.986)" fill="#26252b"/>
          <path id="Path_5-5" data-name="Path 5" d="M2120.262,248.139l-92.713,41.949,86.025-71.738Z" transform="translate(-316 24)" fill="#232228"/>
          <path id="Path_6-5" data-name="Path 6" d="M2048.219,362.494l-20.67-106.087,44.381,86.329Z" transform="translate(-316 57.68)" fill="#232228"/>
          <path id="Path_7-5" data-name="Path 7" d="M2143.083,359.657l-104.567-37.389,23.71-20.062Z" transform="translate(-306.295 98.211)" fill="#27262c"/>
          <path id="Path_8-5" data-name="Path 8" d="M2093.989,370.788l56.235-81.161,27.966,11.247Z" transform="translate(-257.202 87.079)" fill="#302f37"/>
          <path id="Path_9-5" data-name="Path 9" d="M2151.789,345.971l-27.966-11.247,7.6-96.056Z" transform="translate(-230.8 41.982)" fill="#2f2e34"/>
          <path id="Path_10-5" data-name="Path 10" d="M2079.874,248.139l-6.687-29.79,103.047,38.3Z" transform="translate(-275.612 24)" fill="#252328"/>
        </g>
        <g id="Group_47" data-name="Group 47" transform="translate(170 148)" opacity="0.51">
          <g id="Group_9" data-name="Group 9" transform="translate(1553.026 286.982)" opacity="0.5">
            <text id="_2020" data-name="2020" transform="translate(-0.027 81.018)" fill="#fff" font-size="17" font-family="Helvetica-Bold, Helvetica" font-weight="700" opacity="0.5"><tspan x="0" y="0">2020</tspan></text>
            <text id="_2021" data-name="2021" transform="translate(-0.027 103.018)" fill="#fff" font-size="17" font-family="Helvetica-Bold, Helvetica" font-weight="700" opacity="0.3"><tspan x="0" y="0">2021</tspan></text>
            <text id="_2022" data-name="2022" transform="translate(-0.027 125.018)" fill="#fff" font-size="17" font-family="Helvetica-Bold, Helvetica" font-weight="700" opacity="0.1"><tspan x="0" y="0">2022</tspan></text>
            <text id="_2023" data-name="2023" transform="translate(-0.027 147.018)" fill="#fff" font-size="18" font-family="Helvetica-Bold, Helvetica" font-weight="700" opacity="0.02"><tspan x="0" y="0">2023</tspan></text>
            <text id="_2019" data-name="2019" transform="translate(-0.027 59.018)" fill="#fff" font-size="17" font-family="Helvetica-Bold, Helvetica" font-weight="700" opacity="0.3"><tspan x="0" y="0">2019</tspan></text>
            <text id="_2018" data-name="2018" transform="translate(-0.027 38.018)" fill="#fff" font-size="17" font-family="Helvetica-Bold, Helvetica" font-weight="700" opacity="0.1"><tspan x="0" y="0">2018</tspan></text>
            <text id="_2017" data-name="2017" transform="translate(-0.027 16.018)" fill="#fff" font-size="17" font-family="Helvetica-Bold, Helvetica" font-weight="700" opacity="0.02"><tspan x="0" y="0">2017</tspan></text>
          </g>
          <line id="Line_1" data-name="Line 1" x2="90.59" transform="translate(1530.022 351.643)" fill="none" stroke="#707070" stroke-linecap="round" stroke-width="1" stroke-dasharray="4 4"/>
          <line id="Line_2" data-name="Line 2" x2="90.59" transform="translate(1530.022 373.434)" fill="none" stroke="#707070" stroke-linecap="round" stroke-width="1" stroke-dasharray="4 4"/>
          <g id="Ellipse_3" data-name="Ellipse 3" transform="translate(1495 283)" fill="none" stroke="#fff" stroke-width="1" opacity="0.27">
            <circle cx="80" cy="80" r="80" stroke="none"/>
            <circle cx="80" cy="80" r="79.5" fill="none"/>
          </g>
          <g id="Ellipse_4" data-name="Ellipse 4" transform="translate(1500 288)" fill="none" stroke="#fff" stroke-width="1" opacity="0.27">
            <circle cx="75.5" cy="75.5" r="75.5" stroke="none"/>
            <circle cx="75.5" cy="75.5" r="75" fill="none"/>
          </g>
          <g id="Group_22" data-name="Group 22" transform="translate(1499.514 287.67)" opacity="0.27">
            <g id="Group_10" data-name="Group 10" transform="translate(0 75.803)">
              <line id="Line_3" data-name="Line 3" x2="6.849" fill="none" stroke="#707070" stroke-width="1"/>
              <line id="Line_4" data-name="Line 4" x2="6.849" transform="translate(144.757)" fill="none" stroke="#707070" stroke-width="1"/>
            </g>
            <g id="Group_11" data-name="Group 11" transform="translate(75.803 0) rotate(90)">
              <line id="Line_3-2" data-name="Line 3" x2="6.849" transform="translate(0 0)" fill="none" stroke="#707070" stroke-width="1"/>
              <line id="Line_4-2" data-name="Line 4" x2="6.849" transform="translate(144.757 0)" fill="none" stroke="#707070" stroke-width="1"/>
            </g>
            <g id="Group_12" data-name="Group 12" transform="translate(22.202 22.202) rotate(45)">
              <line id="Line_3-3" data-name="Line 3" x2="6.849" transform="translate(0)" fill="none" stroke="#707070" stroke-width="1"/>
              <line id="Line_4-3" data-name="Line 4" x2="6.849" transform="translate(144.757)" fill="none" stroke="#707070" stroke-width="1"/>
            </g>
            <g id="Group_13" data-name="Group 13" transform="translate(129.404 22.202) rotate(135)">
              <line id="Line_3-4" data-name="Line 3" x2="6.849" transform="translate(0)" fill="none" stroke="#707070" stroke-width="1"/>
              <line id="Line_4-4" data-name="Line 4" x2="6.849" transform="translate(144.757)" fill="none" stroke="#707070" stroke-width="1"/>
            </g>
            <g id="Group_14" data-name="Group 14" transform="matrix(0.966, 0.259, -0.259, 0.966, 2.583, 56.184)">
              <line id="Line_3-5" data-name="Line 3" x2="6.849" transform="translate(0 0)" fill="none" stroke="#707070" stroke-width="1"/>
              <line id="Line_4-5" data-name="Line 4" x2="6.849" transform="translate(144.757 0)" fill="none" stroke="#707070" stroke-width="1"/>
            </g>
            <g id="Group_15" data-name="Group 15" transform="matrix(-0.259, 0.966, -0.966, -0.259, 95.422, 2.583)">
              <line id="Line_3-6" data-name="Line 3" x2="6.849" transform="translate(0 0)" fill="none" stroke="#707070" stroke-width="1"/>
              <line id="Line_4-6" data-name="Line 4" x2="6.849" transform="translate(144.757 0)" fill="none" stroke="#707070" stroke-width="1"/>
            </g>
            <g id="Group_16" data-name="Group 16" transform="translate(37.901 10.156) rotate(60)">
              <line id="Line_3-7" data-name="Line 3" x2="6.849" transform="translate(0 0)" fill="none" stroke="#707070" stroke-width="1"/>
              <line id="Line_4-7" data-name="Line 4" x2="6.849" transform="translate(144.757 0)" fill="none" stroke="#707070" stroke-width="1"/>
            </g>
            <g id="Group_17" data-name="Group 17" transform="translate(141.45 37.901) rotate(150)">
              <line id="Line_3-8" data-name="Line 3" x2="6.849" transform="translate(0 0)" fill="none" stroke="#707070" stroke-width="1"/>
              <line id="Line_4-8" data-name="Line 4" x2="6.849" transform="translate(144.757 0)" fill="none" stroke="#707070" stroke-width="1"/>
            </g>
            <g id="Group_18" data-name="Group 18" transform="translate(10.156 37.901) rotate(30)">
              <line id="Line_3-9" data-name="Line 3" x2="6.849" transform="translate(0 0)" fill="none" stroke="#707070" stroke-width="1"/>
              <line id="Line_4-9" data-name="Line 4" x2="6.849" transform="translate(144.757 0)" fill="none" stroke="#707070" stroke-width="1"/>
            </g>
            <g id="Group_19" data-name="Group 19" transform="translate(113.704 10.156) rotate(120)">
              <line id="Line_3-10" data-name="Line 3" x2="6.849" transform="translate(0 0)" fill="none" stroke="#707070" stroke-width="1"/>
              <line id="Line_4-10" data-name="Line 4" x2="6.849" transform="translate(144.757 0)" fill="none" stroke="#707070" stroke-width="1"/>
            </g>
            <g id="Group_20" data-name="Group 20" transform="matrix(0.259, 0.966, -0.966, 0.259, 56.184, 2.583)">
              <line id="Line_3-11" data-name="Line 3" x2="6.849" transform="translate(0 0)" fill="none" stroke="#707070" stroke-width="1"/>
              <line id="Line_4-11" data-name="Line 4" x2="6.849" transform="translate(144.757 0)" fill="none" stroke="#707070" stroke-width="1"/>
            </g>
            <g id="Group_21" data-name="Group 21" transform="matrix(-0.966, 0.259, -0.259, -0.966, 149.023, 56.184)">
              <line id="Line_3-12" data-name="Line 3" x2="6.849" transform="translate(0 0)" fill="none" stroke="#707070" stroke-width="1"/>
              <line id="Line_4-12" data-name="Line 4" x2="6.849" transform="translate(144.757 0)" fill="none" stroke="#707070" stroke-width="1"/>
            </g>
            <g id="Group_23" data-name="Group 23" transform="translate(0.565 66.565) rotate(7)">
              <line id="Line_3-13" data-name="Line 3" x2="6.849" transform="translate(0)" fill="none" stroke="#707070" stroke-width="1"/>
              <line id="Line_4-13" data-name="Line 4" x2="6.849" transform="translate(144.757)" fill="none" stroke="#707070" stroke-width="1"/>
            </g>
            <g id="Group_24" data-name="Group 24" transform="translate(85.041 0.565) rotate(97)">
              <line id="Line_3-14" data-name="Line 3" x2="6.849" transform="translate(0 0)" fill="none" stroke="#707070" stroke-width="1"/>
              <line id="Line_4-14" data-name="Line 4" x2="6.849" transform="translate(144.757 0)" fill="none" stroke="#707070" stroke-width="1"/>
            </g>
            <g id="Group_25" data-name="Group 25" transform="translate(29.134 16.069) rotate(52)">
              <line id="Line_3-15" data-name="Line 3" x2="6.849" transform="translate(0)" fill="none" stroke="#707070" stroke-width="1"/>
              <line id="Line_4-15" data-name="Line 4" x2="6.849" transform="translate(144.757)" fill="none" stroke="#707070" stroke-width="1"/>
            </g>
            <g id="Group_26" data-name="Group 26" transform="translate(135.536 29.134) rotate(142)">
              <line id="Line_3-16" data-name="Line 3" x2="6.849" transform="translate(0)" fill="none" stroke="#707070" stroke-width="1"/>
              <line id="Line_4-16" data-name="Line 4" x2="6.849" transform="translate(144.757)" fill="none" stroke="#707070" stroke-width="1"/>
            </g>
            <g id="Group_27" data-name="Group 27" transform="translate(5.52 47.407) rotate(22)">
              <line id="Line_3-17" data-name="Line 3" x2="6.849" transform="translate(0 0)" fill="none" stroke="#707070" stroke-width="1"/>
              <line id="Line_4-17" data-name="Line 4" x2="6.849" transform="translate(144.757 0)" fill="none" stroke="#707070" stroke-width="1"/>
            </g>
            <g id="Group_28" data-name="Group 28" transform="translate(104.199 5.52) rotate(112)">
              <line id="Line_3-18" data-name="Line 3" x2="6.849" transform="translate(0 0)" fill="none" stroke="#707070" stroke-width="1"/>
              <line id="Line_4-18" data-name="Line 4" x2="6.849" transform="translate(144.757 0)" fill="none" stroke="#707070" stroke-width="1"/>
            </g>
            <g id="Group_29" data-name="Group 29" transform="matrix(0.391, 0.921, -0.921, 0.391, 46.184, 6.026)">
              <line id="Line_3-19" data-name="Line 3" x2="6.849" transform="translate(0 0)" fill="none" stroke="#707070" stroke-width="1"/>
              <line id="Line_4-19" data-name="Line 4" x2="6.849" transform="translate(144.757 0)" fill="none" stroke="#707070" stroke-width="1"/>
            </g>
            <g id="Group_30" data-name="Group 30" transform="matrix(-0.921, 0.391, -0.391, -0.921, 145.58, 46.184)">
              <line id="Line_3-20" data-name="Line 3" x2="6.849" transform="translate(0 0)" fill="none" stroke="#707070" stroke-width="1"/>
              <line id="Line_4-20" data-name="Line 4" x2="6.849" transform="translate(144.757 0)" fill="none" stroke="#707070" stroke-width="1"/>
            </g>
            <g id="Group_31" data-name="Group 31" transform="translate(15.264 30.184) rotate(37)">
              <line id="Line_3-21" data-name="Line 3" x2="6.849" transform="translate(0 0)" fill="none" stroke="#707070" stroke-width="1"/>
              <line id="Line_4-21" data-name="Line 4" x2="6.849" transform="translate(144.757 0)" fill="none" stroke="#707070" stroke-width="1"/>
            </g>
            <g id="Group_32" data-name="Group 32" transform="translate(121.422 15.264) rotate(127)">
              <line id="Line_3-22" data-name="Line 3" x2="6.849" transform="translate(0 0)" fill="none" stroke="#707070" stroke-width="1"/>
              <line id="Line_4-22" data-name="Line 4" x2="6.849" transform="translate(144.757 0)" fill="none" stroke="#707070" stroke-width="1"/>
            </g>
            <g id="Group_33" data-name="Group 33" transform="translate(65.253 0.738) rotate(82)">
              <line id="Line_3-23" data-name="Line 3" x2="6.849" transform="translate(0 0)" fill="none" stroke="#707070" stroke-width="1"/>
              <line id="Line_4-23" data-name="Line 4" x2="6.849" transform="translate(144.757 0)" fill="none" stroke="#707070" stroke-width="1"/>
            </g>
            <g id="Group_34" data-name="Group 34" transform="translate(150.868 65.253) rotate(172)">
              <line id="Line_3-24" data-name="Line 3" x2="6.849" transform="translate(0 0)" fill="none" stroke="#707070" stroke-width="1"/>
              <line id="Line_4-24" data-name="Line 4" x2="6.849" transform="translate(144.757 0)" fill="none" stroke="#707070" stroke-width="1"/>
            </g>
            <g id="Group_35" data-name="Group 35" transform="matrix(1, -0.017, 0.017, 1, 0.012, 77.126)">
              <line id="Line_3-25" data-name="Line 3" x2="6.849" transform="translate(0 0)" fill="none" stroke="#707070" stroke-width="1"/>
              <line id="Line_4-25" data-name="Line 4" x2="6.849" transform="translate(144.757 0)" fill="none" stroke="#707070" stroke-width="1"/>
            </g>
            <g id="Group_36" data-name="Group 36" transform="matrix(0.017, 1, -1, 0.017, 74.48, 0.012)">
              <line id="Line_3-26" data-name="Line 3" x2="6.849" transform="translate(0 0)" fill="none" stroke="#707070" stroke-width="1"/>
              <line id="Line_4-26" data-name="Line 4" x2="6.849" transform="translate(144.757 0)" fill="none" stroke="#707070" stroke-width="1"/>
            </g>
            <g id="Group_37" data-name="Group 37" transform="matrix(0.719, 0.695, -0.695, 0.719, 21.275, 23.146)">
              <line id="Line_3-27" data-name="Line 3" x2="6.849" transform="translate(0)" fill="none" stroke="#707070" stroke-width="1"/>
              <line id="Line_4-27" data-name="Line 4" x2="6.849" transform="translate(144.757)" fill="none" stroke="#707070" stroke-width="1"/>
            </g>
            <g id="Group_38" data-name="Group 38" transform="matrix(-0.695, 0.719, -0.719, -0.695, 128.46, 21.275)">
              <line id="Line_3-28" data-name="Line 3" x2="6.849" transform="translate(0)" fill="none" stroke="#707070" stroke-width="1"/>
              <line id="Line_4-28" data-name="Line 4" x2="6.849" transform="translate(144.757)" fill="none" stroke="#707070" stroke-width="1"/>
            </g>
            <g id="Group_39" data-name="Group 39" transform="translate(2.252 57.464) rotate(14)">
              <line id="Line_3-29" data-name="Line 3" x2="6.849" transform="translate(0)" fill="none" stroke="#707070" stroke-width="1"/>
              <line id="Line_4-29" data-name="Line 4" x2="6.849" transform="translate(144.757)" fill="none" stroke="#707070" stroke-width="1"/>
            </g>
            <g id="Group_40" data-name="Group 40" transform="translate(94.141 2.252) rotate(104)">
              <line id="Line_3-30" data-name="Line 3" x2="6.849" transform="translate(0 0)" fill="none" stroke="#707070" stroke-width="1"/>
              <line id="Line_4-30" data-name="Line 4" x2="6.849" transform="translate(144.757 0)" fill="none" stroke="#707070" stroke-width="1"/>
            </g>
            <g id="Group_41" data-name="Group 41" transform="translate(36.761 10.827) rotate(59)">
              <line id="Line_3-31" data-name="Line 3" x2="6.849" transform="translate(0)" fill="none" stroke="#707070" stroke-width="1"/>
              <line id="Line_4-31" data-name="Line 4" x2="6.849" transform="translate(144.757)" fill="none" stroke="#707070" stroke-width="1"/>
            </g>
            <g id="Group_42" data-name="Group 42" transform="translate(140.779 36.762) rotate(149)">
              <line id="Line_3-32" data-name="Line 3" x2="6.849" transform="translate(0)" fill="none" stroke="#707070" stroke-width="1"/>
              <line id="Line_4-32" data-name="Line 4" x2="6.849" transform="translate(144.757)" fill="none" stroke="#707070" stroke-width="1"/>
            </g>
            <g id="Group_43" data-name="Group 43" transform="matrix(0.875, 0.485, -0.485, 0.875, 9.504, 39.053)">
              <line id="Line_3-33" data-name="Line 3" x2="6.849" transform="translate(0 0)" fill="none" stroke="#707070" stroke-width="1"/>
              <line id="Line_4-33" data-name="Line 4" x2="6.849" transform="translate(144.757 0)" fill="none" stroke="#707070" stroke-width="1"/>
            </g>
            <g id="Group_44" data-name="Group 44" transform="matrix(-0.485, 0.875, -0.875, -0.485, 112.553, 9.504)">
              <line id="Line_3-34" data-name="Line 3" x2="6.849" transform="translate(0 0)" fill="none" stroke="#707070" stroke-width="1"/>
              <line id="Line_4-34" data-name="Line 4" x2="6.849" transform="translate(144.757 0)" fill="none" stroke="#707070" stroke-width="1"/>
            </g>
            <g id="Group_45" data-name="Group 45" transform="translate(54.909 2.936) rotate(74)">
              <line id="Line_3-35" data-name="Line 3" x2="6.849" transform="translate(0)" fill="none" stroke="#707070" stroke-width="1"/>
              <line id="Line_4-35" data-name="Line 4" x2="6.849" transform="translate(144.757)" fill="none" stroke="#707070" stroke-width="1"/>
            </g>
            <g id="Group_46" data-name="Group 46" transform="translate(148.669 54.909) rotate(164)">
              <line id="Line_3-36" data-name="Line 3" x2="6.849" transform="translate(0)" fill="none" stroke="#707070" stroke-width="1"/>
              <line id="Line_4-36" data-name="Line 4" x2="6.849" transform="translate(144.757)" fill="none" stroke="#707070" stroke-width="1"/>
            </g>
          </g>
        </g>
        <g id="Group_4" data-name="Group 4" transform="translate(3335.499 1163.493) rotate(180)" opacity="0.93">
          <path id="Path_1-6" data-name="Path 1" d="M2086.032,234.153l64.164,75.59-99.1,17.14Z" transform="translate(-307.462 29.731)" fill="#28272d"/>
          <path id="Path_2-6" data-name="Path 2" d="M2076.734,234.153l64.164,75.59,5.493-69.437Z" transform="translate(-298.165 29.731)" fill="#2c2b31"/>
          <path id="Path_3-6" data-name="Path 3" d="M2109.544,348.3l40.652-58.67-99.1,17.14Z" transform="translate(-307.462 49.847)" fill="#2b2a30"/>
          <path id="Path_4-6" data-name="Path 4" d="M2094.57,234.153l-67.02,30.324,32.082,62.406Z" transform="translate(-316 29.731)" fill="#26252b"/>
          <path id="Path_5-6" data-name="Path 5" d="M2094.57,239.883l-67.02,30.324,62.186-51.858Z" transform="translate(-316 24)" fill="#232228"/>
          <path id="Path_6-6" data-name="Path 6" d="M2042.492,333.1l-14.942-76.689,32.082,62.406Z" transform="translate(-316 37.8)" fill="#232228"/>
          <path id="Path_7-6" data-name="Path 7" d="M2114.105,343.736l-75.59-27.028,17.14-14.5Z" transform="translate(-312.023 54.408)" fill="#27262c"/>
          <path id="Path_8-6" data-name="Path 8" d="M2093.989,348.3l40.652-58.67,20.216,8.13Z" transform="translate(-291.907 49.847)" fill="#302f37"/>
          <path id="Path_9-6" data-name="Path 9" d="M2144.039,316.236l-20.216-8.13,5.493-69.437Z" transform="translate(-281.089 31.368)" fill="#2f2e34"/>
          <path id="Path_10-6" data-name="Path 10" d="M2078.021,239.883l-4.834-21.534,74.491,27.687Z" transform="translate(-299.451 24)" fill="#252328"/>
        </g>
        <text id="LOG_IN_SIGN_UP" data-name="LOG IN/SIGN UP" transform="translate(1228 943) rotate(-90)" fill="#fff" font-size="20" font-family="Helvetica" opacity="0.18"><tspan x="0" y="0">LOG IN/SIGN UP</tspan></text>
        <text id="Secured" transform="translate(124 700) rotate(-90)" fill="#fff" font-size="20" font-family="Helvetica" opacity="0.18"><tspan x="0" y="0">Secured</tspan></text>
        <text id="Secured-2" data-name="Secured" transform="translate(124 405) rotate(-90)" fill="#fff" font-size="20" font-family="Helvetica" opacity="0.18"><tspan x="0" y="0">Secured</tspan></text>
        <text id="Secured-3" data-name="Secured" transform="translate(124 141) rotate(-90)" fill="#fff" font-size="20" font-family="Helvetica" opacity="0.18"><tspan x="0" y="0">Secured</tspan></text>
        <text id="Secured-4" data-name="Secured" transform="translate(124 995) rotate(-90)" fill="#fff" font-size="20" font-family="Helvetica" opacity="0.18"><tspan x="0" y="0">Secured</tspan></text>
        <text id="Cloud_link" data-name="Cloud link" transform="translate(171 773) rotate(-90)" fill="#fff" font-size="20" font-family="Helvetica" opacity="0.18"><tspan x="0" y="0">Cloud link</tspan></text>
        <text id="Cloud_link-2" data-name="Cloud link" transform="translate(171 1066) rotate(-90)" fill="#fff" font-size="20" font-family="Helvetica" opacity="0.18"><tspan x="0" y="0">Cloud link</tspan></text>
        <text id="Cloud_link-3" data-name="Cloud link" transform="translate(171 480) rotate(-90)" fill="#fff" font-size="20" font-family="Helvetica" opacity="0.18"><tspan x="0" y="0">Cloud link</tspan></text>
        <text id="Cloud_link-4" data-name="Cloud link" transform="translate(171 180) rotate(-90)" fill="#fff" font-size="20" font-family="Helvetica" opacity="0.18"><tspan x="0" y="0">Cloud link</tspan></text>
        <text id="Personal_Accounts" data-name="Personal Accounts" transform="translate(210 995) rotate(-90)" fill="#fff" font-size="20" font-family="Helvetica" opacity="0.18"><tspan x="0" y="0">Personal Accounts</tspan></text>
        <text id="Personal_Accounts-2" data-name="Personal Accounts" transform="translate(210 393) rotate(-90)" fill="#fff" font-size="20" font-family="Helvetica" opacity="0.18"><tspan x="0" y="0">Personal Accounts</tspan></text>
      </g>
    </g>
  </g>
</svg>
